<?xml version="1.0" encoding="UTF-8" standalone="no"?><!DOCTYPE svg PUBLIC "-//W3C//DTD SVG 1.1//EN" "http://www.w3.org/Graphics/SVG/1.1/DTD/svg11.dtd"><svg width="100%" height="100%" viewBox="0 0 864 334" version="1.1" xmlns="http://www.w3.org/2000/svg" xmlns:xlink="http://www.w3.org/1999/xlink" xml:space="preserve" xmlns:serif="http://www.serif.com/" style="fill-rule:evenodd;clip-rule:evenodd;stroke-linejoin:round;stroke-miterlimit:2;"><rect id="Artboard1" x="0" y="0" width="863.425" height="333.333" style="fill:none;"/><g id="Artboard11" serif:id="Artboard1"><path d="M120.214,307.583c-32.86,-11.401 -61.931,-34.206 -80.67,-66.662c-41.394,-71.696 -16.792,-163.51 54.904,-204.904c71.696,-41.394 163.51,-16.792 204.904,54.904c18.684,32.362 23.922,68.822 17.453,102.895c-4.381,-5.771 -12.484,-7.52 -18.921,-3.803c-0.68,0.393 -1.317,0.832 -1.908,1.312c-13.167,-11.024 -32.344,-13.264 -48.071,-4.185l-99.31,57.337c-15.716,9.074 -23.365,26.784 -20.417,43.689c-0.642,0.257 -1.273,0.562 -1.889,0.918c-6.505,3.756 -9.027,11.777 -6.075,18.5Zm52.239,-107.29l25.259,-14.583c1.792,-1.035 2.407,-3.33 1.373,-5.123c-1.035,-1.792 -3.33,-2.407 -5.123,-1.373l-25.259,14.583c-1.792,1.035 -2.407,3.33 -1.373,5.123c1.035,1.792 3.33,2.407 5.123,1.373Zm-42.65,-41.357c0,0 3.642,3.693 7.032,6.074c4.607,3.235 9.761,5.854 14.084,10.279c3.928,4.02 8.1,10.437 10.426,14.248c1.062,1.726 3.304,2.295 5.061,1.286l13.076,-7.521c0,0 8.32,-4.822 13.047,-7.571c1.75,-1.014 2.377,-3.235 1.416,-5.015c-2.132,-3.923 -5.603,-10.744 -7.12,-16.156c-1.67,-5.957 -1.361,-11.729 -1.86,-17.336c-0.367,-4.125 -1.744,-9.126 -1.744,-9.126c-0.708,-2.67 -1.775,-5.291 -3.222,-7.796c-8.817,-15.271 -28.372,-20.511 -43.643,-11.694c-15.271,8.817 -20.511,28.372 -11.694,43.643c1.447,2.505 3.183,4.741 5.141,6.688Zm50.04,49.991l21.651,-12.5c1.792,-1.035 2.407,-3.33 1.373,-5.123c-1.035,-1.792 -3.33,-2.407 -5.123,-1.373l-21.651,12.5c-1.792,1.035 -2.407,3.33 -1.373,5.123c1.035,1.792 3.33,2.407 5.123,1.373Zm-60.445,-11.253l12.964,-22.455c1.035,-1.792 0.42,-4.088 -1.373,-5.123c-1.792,-1.035 -4.088,-0.42 -5.123,1.373l-12.964,22.455c-1.035,1.792 -0.42,4.088 1.373,5.123c1.792,1.035 4.088,0.42 5.123,-1.373Zm63.193,-123.734l-12.964,22.455c-1.035,1.792 -0.42,4.088 1.373,5.123c1.792,1.035 4.088,0.42 5.123,-1.373l12.964,-22.455c1.035,-1.792 0.42,-4.088 -1.373,-5.123c-1.792,-1.035 -4.088,-0.42 -5.123,1.373Zm-68.137,4.376l12.964,22.455c1.035,1.792 3.33,2.407 5.123,1.373c1.792,-1.035 2.407,-3.33 1.373,-5.123l-12.964,-22.455c-1.035,-1.792 -3.33,-2.407 -5.123,-1.373c-1.792,1.035 -2.407,3.33 -1.373,5.123Zm-31.183,60.466l25.929,0c2.07,-0 3.75,-1.68 3.75,-3.75c0,-2.07 -1.68,-3.75 -3.75,-3.75l-25.929,0c-2.07,-0 -3.75,1.68 -3.75,3.75c0,2.07 1.68,3.75 3.75,3.75Zm138.78,-7.875l-25.929,0c-2.07,-0 -3.75,1.68 -3.75,3.75c0,2.07 1.68,3.75 3.75,3.75l25.929,0c2.07,0 3.75,-1.68 3.75,-3.75c0,-2.07 -1.68,-3.75 -3.75,-3.75Zm-41.804,148.029c1.035,1.792 0.42,4.088 -1.373,5.123c-1.792,1.035 -4.088,0.42 -5.123,-1.373c-2.985,-5.171 -2.681,-10.115 -0.679,-14.029c4.657,-9.102 19.13,-12.658 26.073,-0.633c1.035,1.792 0.42,4.088 -1.373,5.123c-1.792,1.035 -4.088,0.42 -5.123,-1.373c-3.435,-5.95 -10.597,-4.205 -12.901,0.299c-0.981,1.917 -0.966,4.329 0.497,6.862Zm69.208,-39.957c1.035,1.792 0.42,4.088 -1.373,5.123c-1.792,1.035 -4.088,0.42 -5.123,-1.373c-2.985,-5.171 -2.681,-10.115 -0.679,-14.029c4.657,-9.102 19.13,-12.658 26.073,-0.633c1.035,1.792 0.42,4.088 -1.373,5.123c-1.792,1.035 -4.088,0.42 -5.123,-1.373c-3.435,-5.95 -10.597,-4.205 -12.901,0.299c-0.981,1.917 -0.966,4.329 0.497,6.862Zm-46.23,65.746c-2.005,0.512 -4.049,-0.7 -4.561,-2.706c-0.512,-2.005 0.7,-4.049 2.706,-4.561c25.436,-6.495 47.94,-19.666 66.309,-38.402c1.449,-1.478 3.825,-1.501 5.303,-0.053c1.478,1.449 1.501,3.825 0.053,5.303c-19.337,19.724 -43.032,33.581 -69.809,40.419Zm145.609,-281.809c0,-2.07 1.68,-3.75 3.75,-3.75c2.07,0 3.75,1.68 3.75,3.75l0,287.5c0,2.07 -1.68,3.75 -3.75,3.75c-2.07,0 -3.75,-1.68 -3.75,-3.75l0,-287.5Zm95.394,103.343l-29.871,0l0,58.709l-28.658,0l0,-159.906l59.832,-0c12.242,0 22.542,2.141 30.9,6.424c8.359,4.283 14.68,10.267 18.965,17.953c4.286,7.686 6.429,16.608 6.429,26.768c0,10.211 -2.162,19.068 -6.486,26.572c-4.324,7.503 -10.699,13.293 -19.125,17.369c-1.009,0.488 -2.045,0.947 -3.11,1.376l34.637,63.445l-32.109,0l-31.405,-58.709Zm-29.871,-23.738l26.917,0c7.257,0 13.18,-1.022 17.766,-3.065c4.588,-2.044 7.985,-5.021 10.192,-8.933c2.207,-3.913 3.31,-8.685 3.31,-14.317c0,-5.724 -1.103,-10.6 -3.31,-14.629c-2.207,-4.03 -5.615,-7.126 -10.226,-9.286c-4.61,-2.161 -10.567,-3.241 -17.87,-3.241l-26.78,0l0,53.472Zm289.13,42.824l-13.102,39.623l-31.336,0l55.819,-159.906l36.435,-0l56.995,159.906l-31.429,0l-13.544,-39.623l-59.838,0Zm51.952,-23.069l-6.959,-20.359c-2.77,-8.597 -5.668,-18.307 -8.693,-29.132c-2.157,-7.719 -4.473,-16.207 -6.949,-25.464c-2.412,9.353 -4.661,17.933 -6.746,25.739c-2.916,10.916 -5.664,20.535 -8.245,28.857l-6.732,20.359l44.324,0Zm-170.187,65.173c-12.37,0 -23.128,-1.931 -32.276,-5.794c-9.147,-3.862 -16.285,-9.479 -21.414,-16.851c-5.128,-7.373 -7.911,-16.329 -8.349,-26.868l28.228,0c0.47,5.597 2.218,10.25 5.247,13.957c3.03,3.706 7.01,6.475 11.943,8.307c4.933,1.831 10.396,2.747 16.388,2.747c6.299,0 11.859,-0.961 16.678,-2.884c4.819,-1.924 8.595,-4.626 11.327,-8.108c2.732,-3.482 4.098,-7.508 4.098,-12.078c0,-4.173 -1.205,-7.618 -3.614,-10.335c-2.408,-2.718 -5.777,-5.011 -10.108,-6.88c-4.33,-1.869 -9.395,-3.526 -15.196,-4.972l-18.159,-4.739c-3.355,-0.861 -6.526,-1.834 -9.512,-2.921c-8.864,-3.224 -16.103,-7.441 -21.714,-12.651c-7.502,-6.965 -11.253,-16.089 -11.253,-27.373c0,-9.427 2.548,-17.676 7.645,-24.745c5.097,-7.07 12.045,-12.561 20.847,-16.475c8.802,-3.914 18.78,-5.871 29.932,-5.871c11.393,0 21.369,1.97 29.93,5.909c8.562,3.94 15.263,9.369 20.104,16.287c4.841,6.918 7.365,14.844 7.574,23.778l-27.764,0c-0.724,-6.871 -3.795,-12.19 -9.211,-15.957c-5.416,-3.768 -12.432,-5.653 -21.046,-5.653c-5.992,0 -11.163,0.908 -15.514,2.725c-4.35,1.815 -7.686,4.306 -10.008,7.472c-2.321,3.165 -3.481,6.775 -3.481,10.829c0,4.474 1.374,8.139 4.123,10.997c2.749,2.857 6.219,5.144 10.41,6.86c4.192,1.716 8.426,3.111 12.701,4.184l14.948,3.82c5.916,1.402 11.673,3.298 17.272,5.688c5.6,2.39 10.638,5.39 15.115,9c4.477,3.61 8.03,7.979 10.658,13.108c2.629,5.128 3.944,11.168 3.944,18.12c0,9.373 -2.388,17.623 -7.164,24.751c-4.775,7.127 -11.671,12.678 -20.689,16.653c-9.017,3.975 -19.897,5.963 -32.64,5.963Zm-187.617,60.674c-2.442,0 -4.606,-0.435 -6.493,-1.306c-1.887,-0.871 -3.366,-2.144 -4.439,-3.821c-1.072,-1.677 -1.608,-3.735 -1.608,-6.174l0,-1.153l4.963,0l0,1.153c0,2.318 0.693,4.046 2.078,5.184c1.386,1.137 3.219,1.706 5.498,1.706c2.311,0 4.058,-0.491 5.24,-1.473c1.183,-0.982 1.775,-2.237 1.775,-3.764c0,-1.038 -0.277,-1.877 -0.831,-2.515c-0.554,-0.638 -1.345,-1.157 -2.374,-1.557c-1.029,-0.399 -2.257,-0.765 -3.682,-1.095l-1.734,-0.411c-2.066,-0.484 -3.861,-1.094 -5.385,-1.831c-1.523,-0.737 -2.703,-1.705 -3.538,-2.905c-0.835,-1.2 -1.252,-2.753 -1.252,-4.658c0,-1.905 0.467,-3.543 1.4,-4.913c0.933,-1.371 2.24,-2.424 3.919,-3.161c1.68,-0.737 3.648,-1.105 5.904,-1.105c2.257,0 4.274,0.387 6.052,1.16c1.778,0.773 3.18,1.919 4.206,3.439c1.026,1.52 1.539,3.423 1.539,5.71l0,1.669l-4.963,0l0,-1.669c0,-1.401 -0.286,-2.531 -0.858,-3.392c-0.572,-0.861 -1.371,-1.494 -2.399,-1.899c-1.027,-0.405 -2.22,-0.607 -3.577,-0.607c-1.998,0 -3.541,0.408 -4.629,1.224c-1.088,0.815 -1.631,1.956 -1.631,3.423c0,0.978 0.241,1.784 0.724,2.417c0.483,0.633 1.188,1.151 2.116,1.555c0.928,0.404 2.074,0.761 3.439,1.072l1.734,0.411c2.105,0.463 3.964,1.062 5.579,1.798c1.615,0.736 2.886,1.719 3.813,2.95c0.927,1.231 1.391,2.821 1.391,4.769c0,1.948 -0.492,3.654 -1.476,5.118c-0.984,1.463 -2.373,2.604 -4.165,3.423c-1.793,0.819 -3.905,1.228 -6.337,1.228Zm25.967,-0.65c-1.408,0 -2.525,-0.415 -3.35,-1.246c-0.825,-0.83 -1.238,-1.954 -1.238,-3.37l0,-14.234l-6.276,0l0,-4.016l6.276,0l0,-7.605l4.778,0l0,7.605l6.867,0l0,4.016l-6.867,0l0,13.441c0,0.929 0.444,1.393 1.333,1.393l4.749,0l0,4.016l-6.272,0Zm21.412,0.404c-1.73,0 -3.274,-0.386 -4.631,-1.157c-1.357,-0.772 -2.42,-1.872 -3.19,-3.299c-0.77,-1.428 -1.155,-3.118 -1.155,-5.071l0,-13.742l4.778,0l0,13.375c0,1.983 0.493,3.448 1.48,4.396c0.987,0.948 2.356,1.422 4.107,1.422c1.979,0 3.562,-0.655 4.747,-1.966c1.185,-1.311 1.778,-3.202 1.778,-5.674l0,-11.553l4.778,0l0,22.865l-4.685,0l0,-3.424l-0.738,0c-0.437,0.926 -1.209,1.795 -2.317,2.609c-1.108,0.813 -2.759,1.219 -4.952,1.219Zm29.212,0.246c-1.891,0 -3.642,-0.462 -5.252,-1.386c-1.61,-0.924 -2.898,-2.265 -3.863,-4.024c-0.965,-1.759 -1.447,-3.87 -1.447,-6.334l0,-0.678c0,-2.464 0.48,-4.575 1.439,-6.334c0.959,-1.759 2.242,-3.1 3.848,-4.024c1.606,-0.924 3.364,-1.386 5.275,-1.386c1.49,0 2.743,0.184 3.757,0.553c1.015,0.368 1.84,0.835 2.477,1.401c0.637,0.565 1.126,1.165 1.468,1.798l0.738,0l0,-12.735l4.778,0l0,32.499l-4.685,0l0,-3.257l-0.738,0c-0.57,0.997 -1.453,1.897 -2.649,2.701c-1.196,0.804 -2.911,1.206 -5.146,1.206Zm1.375,-4.197c2.066,0 3.77,-0.664 5.113,-1.993c1.343,-1.328 2.014,-3.221 2.014,-5.676l0,-0.432c0,-2.456 -0.666,-4.348 -1.999,-5.676c-1.332,-1.328 -3.041,-1.993 -5.127,-1.993c-2.055,0 -3.757,0.664 -5.105,1.993c-1.348,1.328 -2.022,3.221 -2.022,5.676l0,0.432c0,2.456 0.674,4.348 2.022,5.676c1.348,1.328 3.049,1.993 5.105,1.993Zm29.397,4.197c-2.301,0 -4.321,-0.487 -6.059,-1.462c-1.738,-0.975 -3.091,-2.35 -4.061,-4.124c-0.97,-1.774 -1.454,-3.847 -1.454,-6.218l0,-0.557c0,-2.382 0.48,-4.457 1.439,-6.226c0.959,-1.769 2.298,-3.141 4.014,-4.116c1.717,-0.975 3.699,-1.462 5.946,-1.462c2.205,0 4.135,0.481 5.79,1.444c1.655,0.962 2.947,2.312 3.876,4.049c0.929,1.736 1.393,3.77 1.393,6.1l0,1.817l-17.621,0c0.073,2.012 0.755,3.608 2.049,4.788c1.293,1.18 2.896,1.77 4.809,1.77c1.803,0 3.159,-0.399 4.068,-1.198c0.909,-0.798 1.603,-1.723 2.081,-2.774l3.985,2.02c-0.444,0.881 -1.076,1.799 -1.896,2.754c-0.82,0.955 -1.901,1.759 -3.241,2.414c-1.34,0.654 -3.046,0.981 -5.119,0.981Zm-6.69,-14.437l12.721,0c-0.124,-1.721 -0.747,-3.073 -1.87,-4.056c-1.122,-0.984 -2.577,-1.476 -4.365,-1.476c-1.817,0 -3.287,0.492 -4.411,1.476c-1.123,0.983 -1.815,2.335 -2.075,4.056Zm23.343,13.787l0,-22.865l4.685,0l0,3.424l0.738,0c0.437,-0.945 1.209,-1.82 2.317,-2.623c1.108,-0.803 2.759,-1.205 4.952,-1.205c1.741,0 3.287,0.386 4.639,1.158c1.352,0.771 2.413,1.866 3.182,3.283c0.77,1.417 1.155,3.113 1.155,5.086l0,13.742l-4.778,0l0,-13.375c0,-1.993 -0.493,-3.461 -1.48,-4.404c-0.987,-0.943 -2.356,-1.414 -4.107,-1.414c-1.979,0 -3.562,0.656 -4.747,1.967c-1.185,1.311 -1.778,3.202 -1.778,5.674l0,11.553l-4.778,0Zm36.497,0c-1.408,0 -2.525,-0.415 -3.35,-1.246c-0.825,-0.83 -1.238,-1.954 -1.238,-3.37l0,-14.234l-6.276,0l0,-4.016l6.276,0l0,-7.605l4.778,0l0,7.605l6.867,0l0,4.016l-6.867,0l0,13.441c0,0.929 0.444,1.393 1.333,1.393l4.749,0l0,4.016l-6.272,0Zm22.022,0.65c-2.905,0 -5.319,-0.65 -7.244,-1.95c-1.924,-1.3 -3.093,-3.26 -3.506,-5.88l4.459,-1.084c0.227,1.278 0.64,2.284 1.237,3.017c0.598,0.733 1.335,1.255 2.213,1.567c0.878,0.311 1.825,0.467 2.841,0.467c1.535,0 2.711,-0.288 3.529,-0.865c0.818,-0.577 1.227,-1.33 1.227,-2.259c0,-0.939 -0.388,-1.627 -1.164,-2.062c-0.776,-0.436 -1.916,-0.788 -3.418,-1.058l-1.592,-0.281c-1.545,-0.288 -2.95,-0.697 -4.216,-1.227c-1.266,-0.531 -2.276,-1.26 -3.032,-2.187c-0.756,-0.927 -1.134,-2.111 -1.134,-3.552c0,-2.171 0.811,-3.849 2.434,-5.034c1.623,-1.185 3.763,-1.777 6.422,-1.777c2.569,0 4.68,0.575 6.334,1.726c1.653,1.151 2.722,2.714 3.204,4.691l-4.44,1.281c-0.269,-1.393 -0.854,-2.38 -1.753,-2.962c-0.899,-0.582 -2.014,-0.873 -3.345,-0.873c-1.32,0 -2.35,0.24 -3.09,0.719c-0.739,0.479 -1.109,1.161 -1.109,2.048c0,0.916 0.364,1.591 1.091,2.022c0.727,0.431 1.715,0.756 2.962,0.974l1.592,0.281c1.668,0.288 3.177,0.682 4.525,1.182c1.349,0.5 2.417,1.208 3.205,2.125c0.788,0.917 1.182,2.148 1.182,3.692c0,2.317 -0.85,4.105 -2.55,5.367c-1.7,1.261 -3.988,1.892 -6.863,1.892Zm33.929,0c-1.619,0 -3.075,-0.281 -4.37,-0.842c-1.295,-0.562 -2.318,-1.384 -3.071,-2.466c-0.753,-1.083 -1.129,-2.397 -1.129,-3.943c0,-1.557 0.376,-2.856 1.129,-3.896c0.753,-1.041 1.789,-1.824 3.108,-2.349c1.319,-0.526 2.813,-0.789 4.482,-0.789l6.997,0l0,-1.478c0,-1.343 -0.406,-2.42 -1.217,-3.23c-0.811,-0.81 -2.051,-1.215 -3.721,-1.215c-1.638,0 -2.892,0.387 -3.761,1.161c-0.869,0.774 -1.444,1.79 -1.726,3.047l-4.443,-1.453c0.371,-1.23 0.964,-2.349 1.779,-3.357c0.815,-1.007 1.903,-1.818 3.264,-2.432c1.361,-0.615 3.011,-0.922 4.949,-0.922c2.968,0 5.299,0.753 6.992,2.259c1.694,1.505 2.541,3.66 2.541,6.462l0,9.418c0,0.929 0.433,1.393 1.3,1.393l1.971,0l0,3.983l-3.575,0c-1.08,0 -1.96,-0.281 -2.638,-0.844c-0.678,-0.562 -1.016,-1.319 -1.016,-2.269l0,-0.144l-0.736,0c-0.221,0.48 -0.584,1.03 -1.088,1.65c-0.503,0.62 -1.236,1.151 -2.197,1.594c-0.961,0.443 -2.235,0.664 -3.823,0.664Zm0.729,-3.956c1.901,0 3.445,-0.548 4.633,-1.645c1.189,-1.097 1.783,-2.599 1.783,-4.506l0,-0.497l-6.709,0c-1.268,0 -2.289,0.273 -3.066,0.818c-0.776,0.546 -1.164,1.344 -1.164,2.397c0,1.052 0.404,1.888 1.211,2.506c0.807,0.618 1.911,0.927 3.312,0.927Zm27.882,3.956c-1.891,0 -3.642,-0.462 -5.252,-1.386c-1.61,-0.924 -2.898,-2.265 -3.863,-4.024c-0.965,-1.759 -1.447,-3.87 -1.447,-6.334l0,-0.678c0,-2.464 0.48,-4.575 1.439,-6.334c0.959,-1.759 2.242,-3.1 3.848,-4.024c1.606,-0.924 3.364,-1.386 5.275,-1.386c1.49,0 2.743,0.184 3.757,0.553c1.015,0.368 1.84,0.835 2.477,1.401c0.637,0.565 1.126,1.165 1.468,1.798l0.738,0l0,-12.735l4.778,0l0,32.499l-4.685,0l0,-3.257l-0.738,0c-0.57,0.997 -1.453,1.897 -2.649,2.701c-1.196,0.804 -2.911,1.206 -5.146,1.206Zm1.375,-4.197c2.066,0 3.77,-0.664 5.113,-1.993c1.343,-1.328 2.014,-3.221 2.014,-5.676l0,-0.432c0,-2.456 -0.666,-4.348 -1.999,-5.676c-1.332,-1.328 -3.041,-1.993 -5.127,-1.993c-2.055,0 -3.757,0.664 -5.105,1.993c-1.348,1.328 -2.022,3.221 -2.022,5.676l0,0.432c0,2.456 0.674,4.348 2.022,5.676c1.348,1.328 3.049,1.993 5.105,1.993Zm24.22,3.547l-7.725,-22.865l5.084,0l6.07,19.341l0.738,0l6.07,-19.341l5.084,0l-7.725,22.865l-7.596,0Zm26.392,0.65c-1.619,0 -3.075,-0.281 -4.37,-0.842c-1.295,-0.562 -2.318,-1.384 -3.071,-2.466c-0.753,-1.083 -1.129,-2.397 -1.129,-3.943c0,-1.557 0.376,-2.856 1.129,-3.896c0.753,-1.041 1.789,-1.824 3.108,-2.349c1.319,-0.526 2.813,-0.789 4.482,-0.789l6.997,0l0,-1.478c0,-1.343 -0.406,-2.42 -1.217,-3.23c-0.811,-0.81 -2.051,-1.215 -3.721,-1.215c-1.638,0 -2.892,0.387 -3.761,1.161c-0.869,0.774 -1.444,1.79 -1.726,3.047l-4.443,-1.453c0.371,-1.23 0.964,-2.349 1.779,-3.357c0.815,-1.007 1.903,-1.818 3.264,-2.432c1.361,-0.615 3.011,-0.922 4.949,-0.922c2.968,0 5.299,0.753 6.992,2.259c1.694,1.505 2.541,3.66 2.541,6.462l0,9.418c0,0.929 0.433,1.393 1.3,1.393l1.971,0l0,3.983l-3.575,0c-1.08,0 -1.96,-0.281 -2.638,-0.844c-0.678,-0.562 -1.016,-1.319 -1.016,-2.269l0,-0.144l-0.736,0c-0.221,0.48 -0.584,1.03 -1.088,1.65c-0.503,0.62 -1.236,1.151 -2.197,1.594c-0.961,0.443 -2.235,0.664 -3.823,0.664Zm0.729,-3.956c1.901,0 3.445,-0.548 4.633,-1.645c1.189,-1.097 1.783,-2.599 1.783,-4.506l0,-0.497l-6.709,0c-1.268,0 -2.289,0.273 -3.066,0.818c-0.776,0.546 -1.164,1.344 -1.164,2.397c0,1.052 0.404,1.888 1.211,2.506c0.807,0.618 1.911,0.927 3.312,0.927Zm18.991,3.306l0,-22.865l4.685,0l0,3.424l0.738,0c0.437,-0.945 1.209,-1.82 2.317,-2.623c1.108,-0.803 2.759,-1.205 4.952,-1.205c1.741,0 3.287,0.386 4.639,1.158c1.352,0.771 2.413,1.866 3.182,3.283c0.77,1.417 1.155,3.113 1.155,5.086l0,13.742l-4.778,0l0,-13.375c0,-1.993 -0.493,-3.461 -1.48,-4.404c-0.987,-0.943 -2.356,-1.414 -4.107,-1.414c-1.979,0 -3.562,0.656 -4.747,1.967c-1.185,1.311 -1.778,3.202 -1.778,5.674l0,11.553l-4.778,0Zm39.192,0.65c-2.218,0 -4.216,-0.467 -5.994,-1.401c-1.778,-0.934 -3.182,-2.283 -4.213,-4.047c-1.031,-1.764 -1.546,-3.878 -1.546,-6.342l0,-0.585c0,-2.475 0.515,-4.591 1.546,-6.35c1.031,-1.759 2.435,-3.105 4.213,-4.039c1.778,-0.934 3.776,-1.401 5.994,-1.401c2.186,0 4.055,0.395 5.607,1.185c1.551,0.79 2.793,1.852 3.724,3.188c0.932,1.335 1.536,2.811 1.814,4.427l-4.641,0.98c-0.134,-1.026 -0.451,-1.957 -0.95,-2.791c-0.498,-0.835 -1.199,-1.499 -2.102,-1.992c-0.903,-0.493 -2.024,-0.739 -3.362,-0.739c-1.339,0 -2.542,0.299 -3.611,0.896c-1.069,0.597 -1.912,1.464 -2.53,2.6c-0.617,1.136 -0.926,2.507 -0.926,4.113l0,0.432c0,1.606 0.309,2.977 0.926,4.113c0.618,1.136 1.461,2.003 2.53,2.6c1.069,0.597 2.273,0.896 3.611,0.896c2.013,0 3.544,-0.521 4.593,-1.564c1.048,-1.043 1.707,-2.373 1.977,-3.988l4.64,1.07c-0.359,1.576 -1.01,3.031 -1.952,4.367c-0.943,1.335 -2.19,2.398 -3.741,3.188c-1.551,0.79 -3.42,1.185 -5.607,1.185Zm16.846,-0.65l0,-22.865l4.778,0l0,22.865l-4.778,0Zm2.393,-25.98c-0.922,0 -1.701,-0.303 -2.337,-0.908c-0.635,-0.605 -0.952,-1.389 -0.952,-2.352c0,-0.974 0.317,-1.76 0.952,-2.36c0.635,-0.6 1.414,-0.9 2.337,-0.9c0.954,0 1.74,0.3 2.36,0.9c0.62,0.6 0.93,1.386 0.93,2.36c0,0.962 -0.31,1.746 -0.93,2.352c-0.62,0.605 -1.406,0.908 -2.36,0.908Zm9.492,25.98l0,-22.865l4.685,0l0,3.424l0.738,0c0.437,-0.945 1.209,-1.82 2.317,-2.623c1.108,-0.803 2.759,-1.205 4.952,-1.205c1.741,0 3.287,0.386 4.639,1.158c1.352,0.771 2.413,1.866 3.182,3.283c0.77,1.417 1.155,3.113 1.155,5.086l0,13.742l-4.778,0l0,-13.375c0,-1.993 -0.493,-3.461 -1.48,-4.404c-0.987,-0.943 -2.356,-1.414 -4.107,-1.414c-1.979,0 -3.562,0.656 -4.747,1.967c-1.185,1.311 -1.778,3.202 -1.778,5.674l0,11.553l-4.778,0Zm27.438,-11.34l0,-0.678c0,-2.404 0.482,-4.462 1.447,-6.174c0.965,-1.712 2.253,-3.028 3.863,-3.946c1.61,-0.918 3.381,-1.378 5.312,-1.378c2.235,0 3.945,0.412 5.132,1.236c1.186,0.824 2.054,1.714 2.604,2.671l0.738,0l0,-3.257l4.652,0l0,27.536c0,1.416 -0.405,2.539 -1.214,3.37c-0.809,0.83 -1.928,1.246 -3.357,1.246l-15.414,0l0,-4.197l13.891,0c0.899,0 1.349,-0.464 1.349,-1.393l0,-7.289l-0.738,0c-0.342,0.582 -0.821,1.164 -1.439,1.745c-0.617,0.581 -1.427,1.061 -2.432,1.439c-1.004,0.378 -2.261,0.567 -3.772,0.567c-1.931,0 -3.704,-0.459 -5.32,-1.378c-1.616,-0.919 -2.903,-2.237 -3.863,-3.955c-0.959,-1.718 -1.439,-3.773 -1.439,-6.165Zm11.937,7.301c2.066,0 3.77,-0.654 5.113,-1.962c1.343,-1.308 2.014,-3.129 2.014,-5.462l0,-0.432c0,-2.364 -0.666,-4.193 -1.999,-5.485c-1.332,-1.292 -3.041,-1.938 -5.127,-1.938c-2.055,0 -3.757,0.646 -5.105,1.938c-1.348,1.292 -2.022,3.121 -2.022,5.485l0,0.432c0,2.334 0.674,4.155 2.022,5.462c1.348,1.308 3.049,1.962 5.105,1.962Zm-434.979,63.28l0,-22.865l4.685,0l0,2.681l0.738,0c0.373,-0.961 0.965,-1.663 1.776,-2.107c0.811,-0.444 1.824,-0.667 3.039,-0.667l2.737,0l0,4.29l-2.911,0c-1.562,0 -2.833,0.424 -3.814,1.273c-0.981,0.849 -1.471,2.164 -1.471,3.945l0,13.45l-4.778,0Zm27.861,0.65c-2.29,0 -4.33,-0.472 -6.118,-1.417c-1.788,-0.945 -3.19,-2.297 -4.205,-4.056c-1.014,-1.759 -1.521,-3.849 -1.521,-6.271l0,-0.678c0,-2.422 0.507,-4.512 1.521,-6.271c1.015,-1.759 2.416,-3.111 4.205,-4.055c1.788,-0.945 3.828,-1.417 6.118,-1.417c2.29,0 4.33,0.472 6.117,1.417c1.788,0.944 3.19,2.296 4.204,4.055c1.015,1.759 1.522,3.849 1.522,6.271l0,0.678c0,2.422 -0.507,4.512 -1.522,6.271c-1.014,1.759 -2.415,3.111 -4.204,4.056c-1.788,0.944 -3.827,1.417 -6.117,1.417Zm0,-4.257c2.098,0 3.8,-0.672 5.106,-2.017c1.306,-1.345 1.959,-3.209 1.959,-5.592l0,-0.432c0,-2.383 -0.648,-4.247 -1.944,-5.592c-1.296,-1.345 -3.003,-2.017 -5.121,-2.017c-2.088,0 -3.787,0.672 -5.099,2.017c-1.312,1.344 -1.967,3.208 -1.967,5.592l0,0.432c0,2.383 0.656,4.247 1.967,5.592c1.312,1.344 3.011,2.017 5.099,2.017Zm31.041,4.257c-2.214,0 -3.925,-0.402 -5.132,-1.206c-1.206,-0.804 -2.094,-1.705 -2.664,-2.701l-0.738,0l0,3.257l-4.685,0l0,-32.499l4.778,0l0,12.735l0.738,0c0.362,-0.633 0.857,-1.232 1.483,-1.798c0.627,-0.566 1.45,-1.033 2.47,-1.401c1.02,-0.369 2.27,-0.553 3.749,-0.553c1.922,0 3.683,0.462 5.283,1.386c1.6,0.924 2.88,2.265 3.84,4.024c0.959,1.758 1.439,3.87 1.439,6.334l0,0.678c0,2.464 -0.482,4.575 -1.447,6.334c-0.965,1.758 -2.247,3.1 -3.848,4.024c-1.6,0.924 -3.356,1.386 -5.267,1.386Zm-1.374,-4.197c2.066,0 3.77,-0.664 5.113,-1.993c1.343,-1.328 2.014,-3.221 2.014,-5.676l0,-0.432c0,-2.456 -0.666,-4.348 -1.999,-5.676c-1.332,-1.328 -3.041,-1.993 -5.127,-1.993c-2.055,0 -3.757,0.664 -5.105,1.993c-1.348,1.328 -2.022,3.221 -2.022,5.676l0,0.432c0,2.456 0.674,4.348 2.022,5.676c1.348,1.328 3.049,1.993 5.105,1.993Zm28.645,4.197c-2.29,0 -4.33,-0.472 -6.118,-1.417c-1.788,-0.945 -3.19,-2.297 -4.205,-4.056c-1.014,-1.759 -1.521,-3.849 -1.521,-6.271l0,-0.678c0,-2.422 0.507,-4.512 1.521,-6.271c1.015,-1.759 2.416,-3.111 4.205,-4.055c1.788,-0.945 3.828,-1.417 6.118,-1.417c2.29,0 4.33,0.472 6.117,1.417c1.788,0.944 3.19,2.296 4.204,4.055c1.015,1.759 1.522,3.849 1.522,6.271l0,0.678c0,2.422 -0.507,4.512 -1.522,6.271c-1.014,1.759 -2.415,3.111 -4.204,4.056c-1.788,0.944 -3.827,1.417 -6.117,1.417Zm0,-4.257c2.098,0 3.8,-0.672 5.106,-2.017c1.306,-1.345 1.959,-3.209 1.959,-5.592l0,-0.432c0,-2.383 -0.648,-4.247 -1.944,-5.592c-1.296,-1.345 -3.003,-2.017 -5.121,-2.017c-2.088,0 -3.787,0.672 -5.099,2.017c-1.312,1.344 -1.967,3.208 -1.967,5.592l0,0.432c0,2.383 0.656,4.247 1.967,5.592c1.312,1.344 3.011,2.017 5.099,2.017Zm25.581,3.608c-1.408,0 -2.525,-0.415 -3.35,-1.246c-0.825,-0.83 -1.238,-1.954 -1.238,-3.37l0,-14.234l-6.276,0l0,-4.016l6.276,0l0,-7.605l4.778,0l0,7.605l6.867,0l0,4.016l-6.867,0l0,13.441c0,0.929 0.444,1.393 1.333,1.393l4.749,0l0,4.016l-6.272,0Zm12.669,0l0,-22.865l4.778,0l0,22.865l-4.778,0Zm2.393,-25.98c-0.922,0 -1.701,-0.303 -2.337,-0.908c-0.635,-0.605 -0.952,-1.389 -0.952,-2.352c0,-0.974 0.317,-1.76 0.952,-2.36c0.635,-0.6 1.414,-0.9 2.337,-0.9c0.954,0 1.74,0.3 2.36,0.9c0.62,0.6 0.93,1.386 0.93,2.36c0,0.962 -0.31,1.746 -0.93,2.352c-0.62,0.605 -1.406,0.908 -2.36,0.908Zm20.131,26.63c-2.218,0 -4.216,-0.467 -5.994,-1.401c-1.778,-0.934 -3.182,-2.283 -4.213,-4.047c-1.031,-1.764 -1.546,-3.878 -1.546,-6.342l0,-0.585c0,-2.475 0.515,-4.591 1.546,-6.35c1.031,-1.759 2.435,-3.105 4.213,-4.039c1.778,-0.934 3.776,-1.401 5.994,-1.401c2.186,0 4.055,0.395 5.607,1.185c1.551,0.79 2.793,1.852 3.724,3.188c0.932,1.335 1.536,2.811 1.814,4.427l-4.641,0.98c-0.134,-1.026 -0.451,-1.957 -0.95,-2.791c-0.498,-0.835 -1.199,-1.499 -2.102,-1.992c-0.903,-0.493 -2.024,-0.739 -3.362,-0.739c-1.339,0 -2.542,0.299 -3.611,0.896c-1.069,0.597 -1.912,1.464 -2.53,2.6c-0.617,1.136 -0.926,2.507 -0.926,4.113l0,0.432c0,1.606 0.309,2.977 0.926,4.113c0.618,1.136 1.461,2.003 2.53,2.6c1.069,0.597 2.273,0.896 3.611,0.896c2.013,0 3.544,-0.521 4.593,-1.564c1.048,-1.043 1.707,-2.373 1.977,-3.988l4.64,1.07c-0.359,1.576 -1.01,3.031 -1.952,4.367c-0.943,1.335 -2.19,2.398 -3.741,3.188c-1.551,0.79 -3.42,1.185 -5.607,1.185Zm26.199,0c-2.905,0 -5.319,-0.65 -7.244,-1.95c-1.924,-1.3 -3.093,-3.26 -3.506,-5.88l4.459,-1.084c0.227,1.278 0.64,2.284 1.237,3.017c0.598,0.733 1.335,1.255 2.213,1.567c0.878,0.311 1.825,0.467 2.841,0.467c1.535,0 2.711,-0.288 3.529,-0.865c0.818,-0.577 1.227,-1.33 1.227,-2.259c0,-0.939 -0.388,-1.627 -1.164,-2.062c-0.776,-0.436 -1.916,-0.788 -3.418,-1.058l-1.592,-0.281c-1.545,-0.288 -2.95,-0.697 -4.216,-1.227c-1.266,-0.531 -2.276,-1.26 -3.032,-2.187c-0.756,-0.927 -1.134,-2.111 -1.134,-3.552c0,-2.171 0.811,-3.849 2.434,-5.034c1.623,-1.185 3.763,-1.777 6.422,-1.777c2.569,0 4.68,0.575 6.334,1.726c1.653,1.151 2.722,2.714 3.204,4.691l-4.44,1.281c-0.269,-1.393 -0.854,-2.38 -1.753,-2.962c-0.899,-0.582 -2.014,-0.873 -3.345,-0.873c-1.32,0 -2.35,0.24 -3.09,0.719c-0.739,0.479 -1.109,1.161 -1.109,2.048c0,0.916 0.364,1.591 1.091,2.022c0.727,0.431 1.715,0.756 2.962,0.974l1.592,0.281c1.668,0.288 3.177,0.682 4.525,1.182c1.349,0.5 2.417,1.208 3.205,2.125c0.788,0.917 1.182,2.148 1.182,3.692c0,2.317 -0.85,4.105 -2.55,5.367c-1.7,1.261 -3.988,1.892 -6.863,1.892Z" style="fill:#fff;"/></g></svg>