<?xml version="1.0" encoding="UTF-8" standalone="no"?>
<svg
   id="Laag_1"
   version="1.1"
   viewBox="0 0 127.00001 29.61"
   sodipodi:docname="vankeulen_logo.svg"
   width="127"
   height="29.610001"
   inkscape:version="1.4.3 (0d15f75042, 2025-12-25)"
   xmlns:inkscape="http://www.inkscape.org/namespaces/inkscape"
   xmlns:sodipodi="http://sodipodi.sourceforge.net/DTD/sodipodi-0.dtd"
   xmlns="http://www.w3.org/2000/svg"
   xmlns:svg="http://www.w3.org/2000/svg">
  <sodipodi:namedview
     id="namedview22"
     pagecolor="#ffffff"
     bordercolor="#000000"
     borderopacity="0.25"
     inkscape:showpageshadow="2"
     inkscape:pageopacity="0.0"
     inkscape:pagecheckerboard="0"
     inkscape:deskcolor="#d1d1d1"
     inkscape:zoom="7.1000488"
     inkscape:cx="64.577021"
     inkscape:cy="40.563102"
     inkscape:window-width="2560"
     inkscape:window-height="1531"
     inkscape:window-x="0"
     inkscape:window-y="0"
     inkscape:window-maximized="1"
     inkscape:current-layer="Laag_1" />
  <!-- Generator: Adobe Illustrator 29.8.1, SVG Export Plug-In . SVG Version: 2.1.1 Build 2)  -->
  <defs
     id="defs1">
    <style
       id="style1">
      .st0 {
        fill: #1d1d1b;
        fill-rule: evenodd;
      }

      .st1 {
        fill: #dc2f34;
      }
    </style>
  </defs>
  <polygon
     class="st0"
     points="87.06,13.77 87.06,0.35 90.78,0.35 90.79,6.56 94.5,0.35 98.7,0.35 94.77,6.65 99.13,13.77 94.9,13.77 90.76,6.78 90.75,13.77 "
     id="polygon1"
     transform="matrix(0.71545745,0,0,0.71545745,7.605582,4.6478554)" />
  <path
     class="st0"
     d="m 85.576135,9.6846758 v 1.1089582 h -4.321363 v 0.615294 c 0,0.114473 0.01431,0.279028 0.214637,0.493665 0.186019,0.200329 0.651066,0.250411 0.651066,0.250411 h 3.45566 v 2.3467 h -4.986739 c -0.386347,0 -1.00164,0.01431 -1.452378,-0.429274 -0.450738,-0.450739 -0.479357,-0.787004 -0.479357,-1.18766 V 6.5151993 c 0,-0.4006561 0.02862,-0.7440757 0.479357,-1.1876593 0.450738,-0.4507382 1.066031,-0.4292745 1.452378,-0.4292745 h 4.986739 v 2.2250727 h -3.641679 c 0,0 -0.279028,-0.014309 -0.465047,0.1860189 -0.200328,0.2146372 -0.214637,0.3791925 -0.214637,0.4936656 v 0.8013124 h 4.321363 v 1.108959 z"
     id="path1"
     style="stroke-width:0.715457" />
  <path
     class="st0"
     d="m 90.949222,14.499704 h 1.77433 c 0.38635,0 1.06603,-0.107319 1.51677,-0.558057 0.45074,-0.450738 0.66538,-0.908631 0.66538,-1.309287 0,-0.03577 0.007,-7.7412491 0.007,-7.7412491 h -2.60431 v 6.5822081 c 0,0.114473 -0.0143,0.279028 -0.21464,0.493666 -0.18602,0.200328 -0.46505,0.186019 -0.46505,0.186019 h -1.78864 c 0,0 -0.27903,0.01431 -0.46505,-0.186019 -0.20033,-0.214638 -0.21464,-0.379193 -0.21464,-0.493666 V 4.8982655 h -2.60426 c 0,0 0,7.5623845 0,7.7340945 0,0.400656 0.14309,0.858549 0.58667,1.309287 0.45074,0.450738 1.27352,0.558057 1.65987,0.558057 z"
     id="path2"
     style="stroke-width:0.715457" />
  <path
     class="st0"
     d="m 100.70806,14.499704 h 2.33239 l -0.0143,-2.3467 h -3.427038 c 0,0 -0.27903,0.01431 -0.46505,-0.186019 -0.20033,-0.214638 -0.21464,-0.379193 -0.21464,-0.493666 V 4.8982655 h -2.60426 c 0,0 0.007,7.6983215 0.007,7.7340945 0,0.400656 0.25041,0.958713 0.69399,1.402297 0.45074,0.450738 1.15904,0.465047 1.54539,0.465047 z"
     id="path3"
     style="stroke-width:0.715457" />
  <path
     class="st0"
     d="m 110.71015,9.6846758 v 1.1089582 h -4.32136 v 0.615294 c 0,0.114473 0.0143,0.279028 0.21464,0.493665 0.18602,0.200329 0.65106,0.250411 0.65106,0.250411 h 3.45566 v 2.3467 h -4.98674 c -0.38634,0 -1.00164,0.01431 -1.45237,-0.429274 -0.45074,-0.450739 -0.47936,-0.787004 -0.47936,-1.18766 V 6.5151993 c 0,-0.4006561 0.0286,-0.7440757 0.47936,-1.1876593 0.45073,-0.4507382 1.06603,-0.4292745 1.45237,-0.4292745 h 4.98674 v 2.2250727 h -3.64168 c 0,0 -0.27902,-0.014309 -0.46504,0.1860189 -0.20033,0.2146372 -0.21464,0.3791925 -0.21464,0.4936656 v 0.8013124 h 4.32136 v 1.108959 z"
     id="path4"
     style="stroke-width:0.715457" />
  <path
     class="st0"
     d="m 57.365648,14.506859 0.02146,-8.2134515 c -0.08585,-1.4166057 1.044571,-1.6455521 1.90312,-1.6455521 0.858549,0 1.42376,0.4793565 1.760025,1.5525427 0.107319,0.3505741 1.781489,4.2712809 1.781489,4.2712809 l 0.02146,-5.5734135 h 2.582802 c 0,0 0,6.9256275 0,8.0846685 0,1.416606 -0.944404,1.674171 -1.917426,1.674171 -0.973023,0 -1.488152,-0.257565 -1.93889,-1.073187 -0.50082,-0.90863 -1.659861,-4.4716081 -1.659861,-4.4716081 v 5.3873941 c 0,0 -2.554183,0 -2.554183,0 v 0 z"
     id="path5"
     style="stroke-width:0.715457" />
  <path
     class="st0"
     d="m 44.222694,11.566328 2.003281,-6.6680625 h 2.69012 L 46.14012,13.669773 c 0,0 -0.25041,0.615294 -0.772694,0.837086 -0.522284,0.214637 -1.17335,0.214637 -1.17335,0.214637 h -0.02862 c 0,0 -0.651067,0 -1.173351,-0.214637 -0.522282,-0.214638 -0.772692,-0.837086 -0.772692,-0.837086 L 39.436284,4.8982655 h 2.69012 l 2.010435,6.6680625 h 0.09301 z"
     id="path6"
     style="stroke-width:0.715457" />
  <path
     class="st0"
     d="m 112.15538,14.506859 0.0215,-8.2134515 c -0.0859,-1.4166057 1.04453,-1.6455521 1.90308,-1.6455521 0.85855,0 1.42376,0.4793565 1.76002,1.5525427 0.10732,0.3505741 1.78149,4.2712809 1.78149,4.2712809 l 0.0215,-5.5734135 h 2.5828 c 0,0 0,6.9256275 0,8.0846685 0,1.416606 -0.94441,1.674171 -1.91743,1.674171 -0.97302,0 -1.48815,-0.257565 -1.93889,-1.073187 -0.50082,-0.90863 -1.65986,-4.4716081 -1.65986,-4.4716081 v 5.3873941 c 0,0 -2.55418,0 -2.55418,0 v 0 z"
     id="path7"
     style="stroke-width:0.715457" />
  <path
     class="st0"
     d="M 52.250127,7.8244865 53.11583,10.70778 h -1.838725 c 0,0 -0.622448,2.124908 -0.622448,2.124908 h 3.09793 c 0,0 0.500821,1.659861 0.500821,1.659861 h 2.69012 L 54.167553,5.7210416 c 0,0 -0.25041,-0.6152934 -0.772694,-0.8370852 C 52.872575,4.6693191 52.221508,4.6693191 52.221508,4.6693191 h -0.02862 c 0,0 -0.651066,0 -1.17335,0.2146373 -0.522284,0.2146372 -0.772694,0.8370852 -0.772694,0.8370852 l -2.775975,8.7715074 h 2.69012 l 2.010435,-6.6680625 h 0.09301 z"
     id="path8"
     style="stroke-width:0.715457" />
  <polygon
     class="st0"
     points="46,29.26 46,18.12 47.63,18.12 47.63,29.26 "
     id="polygon8"
     transform="matrix(0.71545745,0,0,0.71545745,7.605582,4.6478554)" />
  <polygon
     class="st0"
     points="65.07,18.12 65.07,19.96 62.61,19.96 62.61,29.26 60.98,29.26 60.98,19.96 58.56,19.96 58.56,18.12 "
     id="polygon9"
     transform="matrix(0.71545745,0,0,0.71545745,7.605582,4.6478554)" />
  <path
     class="st0"
     d="m 54.696991,23.772033 c 0.0072,-0.486511 0,-4.070953 0,-4.536001 0,-0.436429 0.135937,-0.815621 0.50082,-1.180504 0.364884,-0.364884 0.951559,-0.436429 1.387988,-0.436429 h 3.341186 v 1.159041 c 0,0 -3.52005,0 -3.062158,0 0.457893,0 -0.486511,0 -0.708303,0.221791 -0.214637,0.214638 -0.243255,0.329111 -0.243255,0.658221 v 1.287824 h 4.028025 v 1.323596 h -4.028025 v 1.023104 c 0,0.457893 -0.0072,0.565211 0.243255,0.815622 0.250411,0.25041 0.336265,0.307646 0.729767,0.307646 h 3.062158 v 1.173351 h -3.319723 c -0.479356,0 -1.073186,-0.128783 -1.366523,-0.414966 -0.293338,-0.293337 -0.586675,-0.744076 -0.572366,-1.402296 v 0 z"
     id="path9"
     style="stroke-width:0.715457" />
  <path
     class="st0"
     d="m 64.920878,18.770985 c 0,0 -2.718738,0 -2.725893,0 0,0 0,6.796846 0,6.796846 h -1.159041 c 0,0 0,-7.963042 0,-7.963042 -0.02146,0 3.899243,0.0072 3.913552,0.0072 1.323597,0 1.917426,0.701148 1.917426,1.709943 v 0.951559 c 0,0.958713 -0.629602,1.76718 -1.552542,1.810107 0,0 -0.772694,0 -1.323596,0 l 3.083621,3.505742 H 65.257143 L 62.53125,22.419863 c 0,0 -0.271874,-0.379192 -0.286183,-0.729767 -0.02146,-0.593829 0.414966,-0.679684 0.67253,-0.708302 h 1.960354 c 0.565211,0 0.686839,-0.586676 0.686839,-0.808467 l 0.01431,-0.736922 c 0,-0.171709 -0.128782,-0.665375 -0.651066,-0.665375 v 0 z"
     id="path10"
     style="stroke-width:0.715457" />
  <path
     class="st0"
     d="m 48.744385,17.611944 v 7.218966 c 0,0.550902 -0.450738,1.00164 -1.00164,1.00164 -0.550902,0 -0.787003,-0.529438 -1.001641,-1.00164 l -2.454019,-4.965275 0.01431,5.716505 h -1.237742 v -7.061565 c 0,-0.550902 0.450738,-1.001641 1.001641,-1.001641 0.550902,0 0.901476,0.744076 1.00164,1.001641 l 2.368164,4.764947 v -5.673578 h 1.316442 z"
     id="path11"
     style="stroke-width:0.715457" />
  <polygon
     class="st0"
     points="84.12,29.26 84.12,18.12 85.75,18.12 85.75,29.26 "
     id="polygon11"
     transform="matrix(0.71545745,0,0,0.71545745,7.605582,4.6478554)" />
  <path
     class="st0"
     d="m 70.208109,23.772033 c 0.0072,-0.486511 0,-4.070953 0,-4.536001 0,-0.436429 0.135937,-0.815621 0.50082,-1.180504 0.364883,-0.364884 0.951558,-0.436429 1.387987,-0.436429 h 3.341187 v 1.159041 c 0,0 -3.520051,0 -3.062158,0 0.457893,0 -0.486511,0 -0.708303,0.221791 -0.214637,0.214638 -0.243256,0.329111 -0.243256,0.658221 v 1.287824 h 4.028026 v 1.323596 h -4.028026 v 1.023104 c 0,0.457893 -0.0072,0.565211 0.243256,0.815622 0.25041,0.25041 0.336265,0.307646 0.729767,0.307646 h 3.062157 v 1.173351 h -3.319722 c -0.479357,0 -1.073186,-0.128783 -1.366524,-0.414966 -0.293337,-0.293337 -0.586675,-0.744076 -0.572366,-1.402296 v 0 z"
     id="path12"
     style="stroke-width:0.715457" />
  <path
     class="st0"
     d="m 78.471642,25.589295 c -0.679684,0 -1.066031,-0.03577 -1.574006,-0.572366 -0.479357,-0.500821 -0.436429,-1.337906 -0.436429,-1.337906 v -6.067079 h 1.25205 v 5.652114 c 0,0 -0.02862,0.493665 0.200328,0.787003 0.26472,0.350574 0.829931,0.350574 0.829931,0.350574 h 1.252051 c 0,0 0.608138,0.01431 0.92294,-0.350574 0.243255,-0.286183 0.200328,-0.787003 0.200328,-0.787003 v -5.652114 h 1.25205 v 6.067079 c 0,0 0.08585,0.808467 -0.436429,1.337906 -0.522284,0.522283 -0.851394,0.572366 -1.574006,0.572366 h -1.860189 z"
     id="path13"
     style="stroke-width:0.715457" />
  <path
     class="st0"
     d="m 87.615192,18.770985 c 0,0 -2.718742,0 -2.725896,0 0,0 0,6.796846 0,6.796846 h -1.159041 c 0,0 0,-7.963042 0,-7.963042 -0.02146,0 3.899247,0.0072 3.913547,0.0072 1.3236,0 1.91743,0.701148 1.91743,1.709943 v 0.951559 c 0,0.958713 -0.6296,1.76718 -1.55254,1.810107 0,0 -0.7727,0 -1.3236,0 l 3.08362,3.505742 h -1.81726 l -2.725891,-3.169477 c 0,0 -0.271874,-0.379192 -0.286183,-0.729767 -0.02146,-0.593829 0.414965,-0.679684 0.67253,-0.708302 h 1.960354 c 0.56521,0 0.68684,-0.586676 0.68684,-0.808467 l 0.0143,-0.736922 c 0,-0.171709 -0.12878,-0.665375 -0.65107,-0.665375 v 0 z"
     id="path14"
     style="stroke-width:0.715457" />
  <path
     class="st0"
     d="m 90.419782,17.597635 h 3.62021 c 1.35937,0 2.04621,0.593829 2.04621,1.745716 0,1.151886 0,-0.06439 0,0.894322 0,0.958713 -0.57236,1.309287 -0.57236,1.309287 0,0 0.62244,0.379192 0.62244,1.337905 0,0.958713 0,-0.264719 0,0.894322 0,1.159041 -0.72976,1.76718 -2.09629,1.76718 h -3.62021 V 17.59048 l 1.20197,1.051723 v 4.178271 c 0,0 0,1.616934 0,1.616934 h 2.38963 c 0.52228,0 0.77984,-0.236101 0.77984,-0.701148 v -0.958713 c 0,-0.465048 -0.25756,-0.701149 -0.77984,-0.701149 h -2.38963 V 20.87443 c 0,0 2.01759,0 2.43971,0 0.52228,0 0.77985,-0.228946 0.77985,-0.665375 v -0.908631 c 0,-0.443584 -0.25757,-0.665376 -0.77985,-0.665376 -0.33627,0 -2.43971,0 -2.43971,0 l -1.19482,-1.051722 v 0 z"
     id="path15"
     style="stroke-width:0.715457" />
  <path
     class="st0"
     d="m 109.32217,17.597635 v 5.30154 c 0,0.565211 0,-0.157401 0,0.529438 0,0.686839 -0.40066,1.030259 -1.20913,1.030259 h -1.05888 c -0.80131,0 -1.20912,-0.350574 -1.20912,-1.030259 0,-0.679685 0,0.03577 0,-0.529438 v -5.30154 h -1.20912 v 5.308694 c 0,0.958713 0,-0.264719 0,0.894322 0,1.159041 0.67968,1.745716 2.04621,1.745716 h 1.78864 c 1.35937,0 2.04621,-0.59383 2.04621,-1.745716 0,-1.151887 0,0.06439 0,-0.894322 v -5.308694 z"
     id="path16"
     style="stroke-width:0.715457" />
  <path
     class="st0"
     d="m 115.8686,19.808398 1.0875,5.058284 c 0,0 0.0644,0.279029 0.20748,0.486512 0.16455,0.236101 0.42212,0.336265 0.72261,0.336265 0.30049,0 0.55806,-0.107319 0.70115,-0.372038 0.13594,-0.243256 0.17171,-0.443584 0.17171,-0.443584 l 1.81726,-7.261893 h -1.28782 l -1.49531,5.823824 -1.09465,-4.979584 c 0,0 -0.17886,-0.951559 -0.80847,-0.951559 h -0.0143 c -0.62961,0 -0.80847,0.951559 -0.80847,0.951559 l -1.09465,4.979584 -1.49531,-5.823824 h -1.27351 l 1.80295,7.261893 c 0,0 0.0429,0.207483 0.17171,0.443584 0.15025,0.264719 0.40781,0.372038 0.70115,0.372038 0.29334,0 0.55806,-0.100164 0.72261,-0.336265 0.14309,-0.207483 0.20748,-0.486512 0.20748,-0.486512 l 1.05173,-5.058284 v 0 z"
     id="path17"
     style="stroke-width:0.715457" />
  <path
     class="st0"
     d="m 100.80822,18.663666 c 0.80131,0 1.20912,0.307647 1.20912,0.987332 0,0.679684 0,-0.03577 0,0.529438 v 2.725893 c 0,0.565211 0,-0.157401 0,0.529439 0,0.686839 -0.40065,1.030258 -1.20912,1.030258 h -1.058878 c -0.80131,0 -1.20912,-0.350574 -1.20912,-1.030258 0,-0.679685 0,0.03577 0,-0.529439 v -2.725893 c 0,-0.565211 0,0.157401 0,-0.529438 0,-0.686839 0.40066,-0.987332 1.20912,-0.987332 h 0.801318 c 0,0 -0.22895,-1.058877 -0.22895,-1.058877 h -0.944398 c -1.35937,0 -2.04621,0.59383 -2.04621,1.745717 0,1.151886 0,-0.06439 0,0.894321 v 2.668657 c 0,0.958713 0,-0.26472 0,0.894321 0,1.159042 0.67968,1.745717 2.04621,1.745717 h 1.788638 c 1.35937,0 2.04621,-0.59383 2.04621,-1.745717 0,-1.151886 0,0.06439 0,-0.894321 v -2.668657 c 0,-0.958713 0,0.26472 0,-0.894321 0,-1.159042 -0.67969,-1.745717 -2.04621,-1.745717 h -0.84424 l 0.2361,1.051723 h 0.25041 z"
     id="path18"
     style="stroke-width:0.715457" />
  <g
     id="g22"
     transform="matrix(0.71545745,0,0,0.71545745,7.605582,4.6478554)">
    <path
       class="st1"
       d="m 1.02,21.27 v 4.51 c 0,1.36 0.47,2.47 2.47,2.47 h 4.93 c 1.36,0 2.47,-1.11 2.47,-2.47 v -4.03 c 0,-1.96 1.67,-3.3 3.62,-3.3 1.95,0 3.45,1.6 3.45,3.56 v 0 1.32 l -0.02,1.12 c 0,2.2 0.89,3.85 4.5,3.84 h 3.24 c 0,0 3.62,0 3.62,0 1.36,0 2.45,-1.14 2.45,-2.5 v -5.06 c 0,-1.36 -1.09,-2.5 -3.47,-2.5 h -3.62 c 0,0 -0.04,0 -0.04,0 -1.86,0 -3.36,-1.49 -3.4,-3.33 0,0.02 0,0.05 0,0.07 v -0.14 c 0,0 0,0.05 0,0.07 0.04,-1.85 1.54,-3.33 3.4,-3.33 h 0.04 c 0,0 3.62,0 3.62,0 2.38,0 3.47,-1.14 3.47,-2.5 V 4 c 0,-1.36 -1.09,-2.5 -2.45,-2.5 h -3.62 c 0,0 -3.24,0 -3.24,0 -3.61,-0.01 -4.5,1.64 -4.5,3.84 l 0.02,1.12 v 1.32 0 c 0,1.96 -1.5,3.56 -3.45,3.56 -1.95,0 -3.54,-1.52 -3.62,-3.41 V 8.04 7.78 c 0,0.05 0,0.1 0,0.15 V 4 C 10.89,2.64 9.78,1.53 8.42,1.53 H 3.49 c -2,0 -2.47,1.1 -2.47,2.47 v 0.62 c 0,0 -0.44,0.01 -0.44,0.01 v 0 c 0,0 0.43,-0.01 0.43,-0.01 v 16.65 z"
       id="path19" />
    <path
       d="m 21.22,14.96 c 0,0 0,-0.05 0,-0.07 0,-0.02 0,-0.05 0,-0.07 z"
       id="path20" />
    <path
       d="M 10.89,8.03 V 7.92 c 0,-0.05 0,-0.1 0,-0.15 z"
       id="path21" />
    <path
       d="m 39.49,8.94 v -3.68 0.1 c 0,0 0,-2.11 0,-2.11 0,-1.52 -1.15,-2.78 -2.67,-2.78 h -15 c -2.71,-0.02 -3.8,1.59 -3.8,1.59 0,0 -1.14,-1.56 -2.81,-1.56 H 2.9 C 1.37,0.59 0,1.82 0,3.48 v 1.17 c 0,0 0.58,-0.02 0.58,-0.02 h 0.43 c 0,0 0,-0.64 0,-0.64 0,-1.36 0.47,-2.47 2.47,-2.47 h 4.93 c 1.36,0 2.47,1.11 2.47,2.47 v 3.93 c 0.08,1.89 1.72,3.41 3.62,3.41 1.9,0 3.45,-1.6 3.45,-3.56 v 0 -1.32 L 17.93,5.33 c 0,-2.2 0.89,-3.85 4.5,-3.84 h 3.24 c 0,0 3.62,0 3.62,0 1.36,0 2.45,1.14 2.45,2.5 v 5.06 c 0,1.36 -1.09,2.5 -3.47,2.5 h -3.62 c 0,0 -0.04,0 -0.04,0 -1.86,0 -3.36,1.49 -3.4,3.33 0.04,1.85 1.54,3.33 3.4,3.33 h 0.04 c 0,0 3.62,0 3.62,0 2.38,0 3.47,1.14 3.47,2.5 v 5.06 c 0,1.36 -1.09,2.5 -2.45,2.5 h -3.62 c 0,0 -3.24,0 -3.24,0 -3.61,0.01 -4.5,-1.64 -4.5,-3.84 l 0.02,-1.12 v -1.32 0 c 0,-1.96 -1.5,-3.56 -3.45,-3.56 -1.95,0 -3.62,1.34 -3.62,3.3 v 4.03 c 0,1.36 -1.11,2.47 -2.47,2.47 H 3.49 c -2,0 -2.47,-1.11 -2.47,-2.47 V 4.62 c 0,0 -0.44,0.01 -0.44,0.01 L 0,4.65 v 17.28 c 0,0 0,4.38 0,4.38 0,1.66 1.37,2.89 2.9,2.96 h 12.32 c 1.67,0 2.81,-1.56 2.81,-1.56 0,0 1.09,1.61 3.8,1.59 h 15 c 1.52,0 2.67,-1.26 2.67,-2.77 v -2.11 0.34 c 0,0 0,-3.68 0,-3.68 0,-1.96 -1.5,-3.56 -3.45,-3.56 l -4.63,0.04 0.07,-0.04 c -1.35,0 -2.44,-1.09 -2.44,-2.44 0,-1.35 1.09,-2.57 2.44,-2.57 l -0.07,-0.04 4.63,0.04 c 1.96,0 3.45,-1.6 3.45,-3.56 z"
       id="path22" />
  </g>
</svg>
